<svg xmlns="http://www.w3.org/2000/svg" xml:space="preserve" width="64" height="64" fill="#fff" stroke="#fff" viewBox="0 0 481.882 481.882"><path d="M216.402 170.984 113.714 472.351a6.91 6.91 0 0 0 12.954 4.803L245.27 181.689l-28.868-10.705z"/><path d="M406.16 76.109c-100.963-100.963-264.655-100.963-365.618 0-108.286 108.286 23.628 117.615 123.86 199.287l42.434-124.538 2.02.749c-.931-5.76-.448-11.612 1.559-17.026 2.888-7.794 8.754-13.123 14.967-18.766l3.427-3.138c5.006-4.661 10.907-10.638 16.717-19.586 3.309-5.1 8.478-8.026 14.175-8.026h6.842l5.154 5.32c2.561 2.797 8.558 9.348 5.005 49.453-1.001 11.344-2.284 15.795-3.165 18.156-2 5.404-5.45 10.158-9.916 13.923l2.019.749-58.43 145.561c81.602 99.964 92.515 229.935 198.949 123.501 100.964-100.963 100.964-264.656.001-365.619zM88.624 160.018c-22.1 0-40.016-17.916-40.016-40.017s17.915-40.017 40.016-40.017 40.017 17.916 40.017 40.017-17.916 40.017-40.017 40.017zm112.303-46.686c-22.101 0-40.017-17.916-40.017-40.017 0-22.1 17.915-40.016 40.017-40.016 22.1 0 40.016 17.916 40.016 40.016 0 22.101-17.917 40.017-40.016 40.017zm198.414 38.404c22.1 0 40.017 17.916 40.017 40.016 0 22.101-17.916 40.017-40.017 40.017-22.1 0-40.017-17.916-40.017-40.017.001-22.1 17.918-40.016 40.017-40.016zM285.128 97.42c0-22.1 17.916-40.017 40.017-40.017 22.1 0 40.017 17.916 40.017 40.017 0 22.1-17.917 40.017-40.017 40.017-22.101 0-40.017-17.917-40.017-40.017zm56.69 344.435c-22.101 0-40.017-17.915-40.017-40.016s17.915-40.017 40.017-40.017c22.1 0 40.016 17.916 40.016 40.017 0 22.1-17.916 40.016-40.016 40.016zm57.523-90.037c-22.1 0-40.017-17.915-40.017-40.017 0-22.1 17.917-40.016 40.017-40.016s40.017 17.915 40.017 40.016c0 22.102-17.917 40.017-40.017 40.017z"/><path d="M258.565 101.553c-6.695 10.319-13.419 17.151-19.164 22.501-6.988 6.508-12.5 10.778-14.409 15.928-1.234 3.329-1.382 6.779-.702 10.013l28.681 10.635c2.628-2.009 4.763-4.721 5.997-8.051.917-2.473 1.694-7.8 2.253-14.109 1.558-17.624 1.356-43.099-2.656-36.917z"/></svg>