<svg xmlns="http://www.w3.org/2000/svg" width="64" height="64" fill="#fff" stroke="#fff" stroke-width=".001" viewBox="0 0 74.67 74.67"><defs><clipPath id="a" clipPathUnits="userSpaceOnUse"><path d="M0 64h64V0H0Z"/></clipPath></defs><g clip-path="url(#a)" style="display:inline" transform="matrix(1.33333 0 0 -1.33333 -5.333 68)"><path stroke="none" d="M0 0h-15.826C-11.746 2.449-9 6.904-9 12s-2.746 9.551-6.826 12H3V3.114C3 1.397 1.654 0 0 0m-23 24c6.617 0 12-5.383 12-12S-16.383 0-23 0s-12 5.383-12 12 5.383 12 12 12M-46 0c-1.654 0-3 1.397-3 3.114V19h7a1 1 0 0 1 0 2h-7v3h18.826C-34.254 21.551-37 17.096-37 12s2.746-9.551 6.826-12zm0 30.914h17.404a1 1 0 0 1 .82.427l1.86 2.659H0c1.654 0 3-1.397 3-3.114V26h-52v1.8c0 1.717 1.346 3.114 3 3.114M-46 34h5v-1h-5zm11 0h3v-1h-3zm35 2h-26.436a.999.999 0 0 1-.819-.427l-1.861-2.659H-30V35a1 1 0 0 1-1 1h-5a1 1 0 0 1-1-1v-2.086h-2V35a1 1 0 0 1-1 1h-7a1 1 0 0 1-1-1v-2.52a5.12 5.12 0 0 1-3-4.68V3.114C-51 .294-48.757-2-46-2H0C2.757-2 5 .294 5 3.114v27.772C5 33.706 2.757 36 0 36" style="fill:#fff;fill-opacity:1;fill-rule:nonzero;stroke:none" transform="translate(55 15)"/><path stroke="none" d="M0 0c3.309 0 6-2.691 6-6s-2.691-6-6-6-6 2.691-6 6 2.691 6 6 6m0-14c4.411 0 8 3.589 8 8S4.411 2 0 2s-8-3.589-8-8 3.589-8 8-8" style="fill:#fff;fill-opacity:1;fill-rule:nonzero;stroke:none" transform="translate(32 33)"/><path stroke="none" d="M0 0h-5.074a.463.463 0 0 1-.463-.463v-3.074c0-.256.207-.463.463-.463H0c.256 0 .463.207.463.463v3.074A.463.463 0 0 1 0 0" style="fill:#fff;fill-opacity:1;fill-rule:nonzero;stroke:none" transform="translate(55.537 37)"/></g></svg>