<!DOCTYPE svg PUBLIC "-//W3C//DTD SVG 1.1//EN" "http://www.w3.org/Graphics/SVG/1.1/DTD/svg11.dtd">
<!-- Uploaded to: SVG Repo, www.svgrepo.com, Transformed by: SVG Repo Mixer Tools -->
<svg fill="#4258ff" height="64px" width="64px" version="1.2" baseProfile="tiny" id="Layer_1" xmlns="http://www.w3.org/2000/svg" xmlns:xlink="http://www.w3.org/1999/xlink" viewBox="-351 153 256 256" xml:space="preserve" stroke="#4258ff">
<g id="SVGRepo_bgCarrier" stroke-width="0"/>
<g id="SVGRepo_tracerCarrier" stroke-linecap="round" stroke-linejoin="round"/>
<g id="SVGRepo_iconCarrier"> <path d="M-222.5,159c20.6,0,37.3,16.7,37.3,37.3s-16.7,37.3-37.3,37.3s-37.3-16.7-37.3-37.3S-243.1,159-222.5,159z M-282.6,298.8 c0-2.8,1.8-4.7,4.7-4.7s4.7,1.8,4.7,4.7V403h102.5V298.8c0-2.8,1.8-4.7,4.7-4.7c2.8,0,4.7,1.8,4.7,4.7V403h32.6V289.4 c0-25.7-21-46.6-46.6-46.6h-9.4l-27.4,42.6l-3.3-31.9l4.5-10.8h-20.2l4.5,10.8l-3.5,32.1l-27.4-42.8h-11c-25.7,0-46.6,21-46.6,46.6 V403h32.6V298.8H-282.6z"/> </g>
</svg>