<svg xmlns="http://www.w3.org/2000/svg" xml:space="preserve" width="64" height="64" fill="#fff" stroke="#fff" viewBox="0 0 471.936 471.936"><path d="M159.542 73.447a5 5 0 0 0 4.278-5.63 432.32 432.32 0 0 1-1.563-12.912 5 5 0 0 0-9.945 1.053 445.798 445.798 0 0 0 1.601 13.211 5 5 0 0 0 5.629 4.278zM167.159 88.33a4.999 4.999 0 1 0-9.824 1.866c6.26 32.958 16.182 61.961 28.691 83.873a4.996 4.996 0 0 0 6.821 1.863 5 5 0 0 0 1.863-6.821c-11.968-20.963-21.494-48.896-27.551-80.781zM278.42 177.037a5 5 0 0 0-6.947 1.317c-11.494 16.875-24.104 26.169-35.504 26.169a5 5 0 1 0 0 10c15.025 0 30.16-10.561 43.77-30.54a5 5 0 0 0-1.319-6.946zM315.179 50.459a5 5 0 0 0-5.499 4.445c-4.411 41.639-14.199 78.455-28.307 106.467a5 5 0 0 0 8.932 4.498c14.644-29.079 24.782-67.085 29.32-109.912a5 5 0 0 0-4.446-5.498zM316.23 37.352a5 5 0 0 0 5.269-4.715c.211-3.792.38-7.654.501-11.478a5 5 0 0 0-4.838-5.157c-2.769-.072-5.068 2.079-5.156 4.838-.12 3.745-.285 7.527-.491 11.241a5 5 0 0 0 4.715 5.271z"/><path d="M404.518 25.437h-58.16a5 5 0 0 0-5 5v8.648c0 3.788-1.975 7.167-4.944 9.154A503.072 503.072 0 0 0 338.258 5a5 5 0 0 0-5-5h-194.58a5 5 0 0 0-5 5c0 14.677.626 29.14 1.844 43.239-2.969-1.987-4.944-5.365-4.944-9.154v-8.648a5 5 0 0 0-5-5h-58.16a5 5 0 0 0-5 5v8.648c0 38.371 7.211 68.81 22.046 93.056 19.151 31.289 51.085 51.947 94.917 61.44 9.356 13.62 19.667 23.666 30.593 29.811-3.669 2.646-6.071 6.945-6.071 11.804 0 7.291 5.394 13.33 12.397 14.379-.639 5.08-1.221 10.134-1.786 15.056-3.618 31.532-7.046 61.358-24.509 82.781h-5.603a5 5 0 0 0-5 5v11h-18.297a5 5 0 0 0-5 5v77.523H144.66a5 5 0 0 0-5 5v16a5 5 0 0 0 5 5h182.616a5 5 0 0 0 5-5v-16a5 5 0 0 0-5-5h-11.445v-77.523a5 5 0 0 0-5-5h-18.297v-11a5 5 0 0 0-5-5h-5.602c-17.464-21.424-20.892-51.252-24.51-82.786-.564-4.921-1.146-9.973-1.785-15.051 7.003-1.049 12.397-7.088 12.397-14.379 0-4.859-2.402-9.158-6.072-11.804 10.927-6.145 21.237-16.192 30.593-29.811 43.831-9.493 75.765-30.152 94.917-61.441 14.834-24.246 22.045-54.684 22.045-93.055v-8.648a4.998 4.998 0 0 0-4.999-5zM332.98 77.303c14.896-1.028 27.869-10.685 33.163-24.57h15.722c-1.437 26.736-7.235 48.092-17.674 65.158-11.81 19.297-29.41 33.159-53.605 42.163 10.199-23.947 17.773-52.129 22.394-82.751zm-171.628 82.752c-24.195-9.004-41.796-22.866-53.604-42.162C97.309 100.827 91.51 79.47 90.072 52.734h15.723c5.293 13.885 18.266 23.542 33.162 24.57 4.621 30.621 12.194 58.803 22.395 82.751zm-68.359-33.134c-13.845-22.629-20.575-51.36-20.575-87.836v-3.648h48.161v3.648c0 9.774 6.88 18.132 16.047 20.397.282 2.55.59 5.082.911 7.604-11.047-1.604-20.324-9.635-23.284-20.651a5 5 0 0 0-4.829-3.703h-24.57a5 5 0 0 0-4.997 5.161c.998 30.945 7.331 55.548 19.361 75.217 14.507 23.705 36.744 39.873 67.884 49.415 1.546 3.1 3.127 6.092 4.746 8.957-36.106-9.685-62.6-28.006-78.855-54.561zm229.283 335.015H149.66v-6h172.616v6zm-16.445-16H166.105v-72.523h139.726v72.523zm-116.429-82.523v-6h93.132v6h-93.132zm13.04-16a88.185 88.185 0 0 0 3.792-6.217h59.469a87.957 87.957 0 0 0 3.792 6.217h-67.053zm58.441-16.218h-49.83c8.125-19.538 10.712-42.033 13.395-65.423.602-5.241 1.224-10.631 1.91-16.018h19.221c.686 5.385 1.309 10.773 1.909 16.012 2.684 23.394 5.268 45.89 13.395 65.429zm-7.406-91.441h-35.019c-2.513 0-4.557-2.044-4.557-4.557s2.044-4.557 4.557-4.557h35.019c2.513 0 4.558 2.044 4.558 4.557s-2.045 4.557-4.558 4.557zm-17.508-19.231c-23.886 0-46.692-21.879-64.22-61.608C154.167 119.063 144.257 66.348 143.703 10h184.531c-.555 56.347-10.464 109.063-28.046 148.916-17.527 39.728-40.334 61.607-64.219 61.607zM399.518 39.085c0 36.476-6.73 65.207-20.574 87.835-16.255 26.556-42.75 44.876-78.855 54.564 1.619-2.865 3.2-5.857 4.746-8.957 31.14-9.543 53.377-25.71 67.885-49.416 12.03-19.668 18.362-44.272 19.359-75.216a4.996 4.996 0 0 0-4.997-5.161h-24.569a5 5 0 0 0-4.829 3.702c-2.96 11.015-12.239 19.046-23.284 20.651.321-2.522.629-5.054.911-7.604 9.167-2.265 16.047-10.623 16.047-20.397v-3.648h48.16v3.647z"/><path d="M266.969 387.174h-62a5 5 0 0 0-5 5v35a5 5 0 0 0 5 5h62a5 5 0 0 0 5-5v-35a5 5 0 0 0-5-5zm-5 35h-52v-25h52v25zM188.471 378.413h-14a5 5 0 1 0 0 10h14a5 5 0 1 0 0-10zM275.471 411.413a5 5 0 0 0 5 5h14a5 5 0 1 0 0-10h-14a5 5 0 0 0-5 5zM181.471 428.413h-7a5 5 0 1 0 0 10h7a5 5 0 1 0 0-10z"/></svg>