<svg xmlns="http://www.w3.org/2000/svg" xml:space="preserve" id="_x32_" width="64" height="64" fill="#000" version="1.1" viewBox="0 0 512 512"><g id="SVGRepo_iconCarrier"><style>.st0{fill:#fff}</style><path d="M201.672 361.172c-4.719 10.078-11.297 16.484-18.219 20.594-3.25 1.938-6.609 3.297-9.813 4.219l-11.109-41.031H83.688l27.469 138.828a18.124 18.124 0 0 0 17.781 14.594h51.469a18.156 18.156 0 0 0 14.391-7.094 18.144 18.144 0 0 0 3.094-15.766l-19.234-71.031a58.684 58.684 0 0 0 4.469-1.422c10.063-3.688 20.484-10.578 28.641-21.531 5.922-7.953 10.531-17.984 13.141-30.125a450.453 450.453 0 0 0-18.938-3.125c-1.096 4.859-2.565 9.14-4.299 12.89z" class="st0"/><path d="M426.281 13.625c-14.469 0-37.813 24.688-47.875 34.766-8.75 8.75-77.625 77.297-252.375 77.297v204.359c174.75 0 243.625 68.547 252.375 77.313 10.063 10.063 33.406 34.75 47.875 34.75s26.203-11.719 26.203-26.203V39.813c0-14.469-11.734-26.188-26.203-26.188zM102.188 125.688C45.75 125.688 0 171.422 0 227.875c0 56.438 45.75 102.172 102.188 102.172V125.688zM473.641 189.5v76.719c21.188 0 38.359-17.156 38.359-38.344 0-21.203-17.172-38.375-38.359-38.375z" class="st0"/></g></svg>